<svg width="17" height="15" viewBox="0 0 17 15" fill="none" xmlns="http://www.w3.org/2000/svg">
<path fill-rule="evenodd" clip-rule="evenodd" d="M-3.14722e-07 7.19844C-3.36449e-07 6.70138 0.402943 6.29844 0.9 6.29844L13.6655 6.29844L8.6762 1.54718C8.31791 1.20267 8.30674 0.632932 8.65125 0.274638C8.99576 -0.0836567 9.5655 -0.0948281 9.9238 0.249686L16.5238 6.54969C16.7003 6.71937 16.8 6.95362 16.8 7.19844C16.8 7.44325 16.7003 7.6775 16.5238 7.84718L9.9238 14.1472C9.5655 14.4917 8.99576 14.4805 8.65125 14.1222C8.30674 13.7639 8.31791 13.1942 8.6762 12.8497L13.6655 8.09844L0.9 8.09844C0.402943 8.09844 -2.92995e-07 7.69549 -3.14722e-07 7.19844Z" fill="white"/>
</svg>
